<?xml version="1.0" standalone="no"?>
<!DOCTYPE svg PUBLIC "-//W3C//DTD SVG 20010904//EN"
 "http://www.w3.org/TR/2001/REC-SVG-20010904/DTD/svg10.dtd">
<svg version="1.0" xmlns="http://www.w3.org/2000/svg"
 width="1280.000000pt" height="1280.000000pt" viewBox="0 0 1280.000000 1280.000000"
 preserveAspectRatio="xMidYMid meet">
<metadata>
Created by potrace 1.14, written by Peter Selinger 2001-2017
</metadata>
<g transform="translate(0.000000,1280.000000) scale(0.100000,-0.100000)"
fill="#000000" stroke="none">
<path d="M9243 11851 c11 -101 37 -160 157 -346 43 -66 132 -214 199 -330 67
-115 126 -217 131 -225 81 -136 119 -205 200 -365 163 -322 252 -573 294 -830
22 -131 27 -197 15 -190 -5 4 -9 11 -9 17 0 14 -90 192 -137 273 -91 155 -289
428 -381 524 -112 118 -205 210 -260 258 -37 32 -84 73 -104 92 -21 19 -48 41
-60 49 -13 9 -25 19 -28 22 -3 3 -50 38 -105 78 -55 39 -105 75 -111 79 -5 4
-19 13 -30 20 -169 105 -219 136 -276 167 -37 21 -71 38 -75 38 -4 1 -28 13
-53 27 -25 15 -56 31 -70 37 -14 7 -59 27 -100 47 -268 126 -474 194 -650 214
-116 14 -289 4 -348 -19 -15 -5 -38 -12 -52 -15 -138 -26 -179 -180 -77 -288
39 -40 154 -138 208 -178 13 -9 53 -38 89 -64 104 -75 347 -233 359 -233 6 0
11 -4 11 -9 0 -5 8 -11 18 -15 9 -3 44 -24 77 -46 33 -22 71 -46 85 -53 34
-17 265 -166 295 -190 5 -5 39 -28 74 -53 36 -24 61 -44 57 -44 -5 0 -74 11
-155 24 -80 13 -171 27 -201 31 -30 3 -71 8 -90 10 -36 5 -133 13 -250 20 -93
6 -524 6 -595 0 -33 -2 -96 -7 -140 -10 -44 -4 -96 -8 -115 -10 -19 -3 -62 -7
-95 -10 -33 -3 -73 -8 -90 -11 -16 -3 -39 -7 -50 -8 -31 -5 -129 -20 -135 -21
-3 -1 -27 -5 -55 -10 -61 -9 -55 -8 -185 -35 -58 -12 -118 -25 -135 -30 -16
-5 -41 -11 -55 -14 -14 -3 -68 -17 -120 -32 -52 -14 -99 -27 -105 -28 -25 -6
-192 -58 -210 -66 -11 -5 -47 -18 -80 -28 -286 -92 -730 -298 -1041 -483 -153
-91 -397 -252 -486 -320 -31 -24 -66 -51 -78 -59 -12 -8 -28 -20 -34 -25 -6
-6 -33 -28 -61 -50 -99 -79 -99 -80 -190 -158 -81 -70 -408 -398 -470 -471
-28 -32 -63 -73 -78 -90 -15 -17 -47 -56 -70 -86 -23 -30 -45 -57 -48 -60 -3
-3 -30 -39 -60 -80 -153 -209 -291 -428 -403 -644 -26 -50 -49 -94 -52 -98 -4
-7 -118 67 -179 114 -5 5 -28 22 -50 38 -22 17 -49 37 -60 46 -11 8 -32 23
-48 32 -15 9 -27 20 -27 24 0 4 -5 8 -12 8 -6 0 -18 7 -27 15 -13 13 -74 59
-231 175 -14 10 -95 71 -180 136 -478 363 -935 698 -1017 747 -8 5 -21 -14
-40 -55 -15 -35 -63 -135 -106 -223 -44 -88 -97 -200 -119 -249 -39 -89 -39
-89 -24 -134 9 -25 46 -89 82 -144 37 -54 65 -100 63 -103 -5 -4 -158 -56
-174 -59 -80 -14 -185 -43 -185 -51 0 -6 -43 -95 -95 -198 -52 -103 -93 -187
-90 -187 2 0 -3 -16 -11 -35 -14 -34 -14 -36 11 -45 14 -5 36 -12 48 -14 12
-3 81 -21 152 -41 116 -32 179 -49 225 -60 8 -2 89 -24 180 -48 158 -42 214
-57 225 -58 2 0 19 -5 37 -10 18 -5 83 -23 143 -39 61 -16 137 -37 170 -46 33
-9 68 -18 78 -19 9 -2 21 -6 25 -9 5 -3 22 -7 38 -10 16 -3 65 -15 109 -27
164 -44 300 -80 315 -84 57 -13 204 -54 200 -55 -22 -6 -103 -17 -170 -25 -41
-5 -114 -15 -150 -20 -14 -3 -45 -6 -70 -9 -25 -3 -58 -7 -75 -10 -16 -2 -66
-10 -110 -16 -44 -6 -91 -13 -105 -15 -14 -2 -50 -7 -80 -10 -30 -3 -62 -8
-70 -10 -8 -2 -40 -7 -70 -11 -30 -4 -62 -8 -70 -9 -8 -1 -44 -5 -80 -10 -36
-4 -72 -9 -80 -10 -23 -4 -159 -24 -210 -30 -25 -3 -76 -10 -115 -16 -38 -5
-86 -11 -105 -13 -19 -2 -55 -7 -80 -10 -47 -6 -92 -12 -175 -22 -27 -3 -60
-7 -71 -9 -12 -2 -48 -6 -80 -10 -75 -9 -106 -13 -109 -17 -5 -5 110 -339 231
-668 67 -183 108 -303 166 -477 57 -174 65 -192 83 -187 63 18 796 321 1120
464 82 36 135 59 235 102 154 67 164 71 170 73 9 3 42 17 134 57 49 21 91 37
93 35 2 -3 -48 -86 -91 -149 -89 -132 -239 -349 -281 -408 -29 -41 -77 -108
-106 -149 l-52 -73 94 48 c52 26 135 71 184 100 50 28 135 75 190 104 55 28
106 57 114 63 8 7 17 11 20 10 3 0 21 5 40 13 19 8 35 13 36 12 2 -2 5 -21 9
-43 3 -22 8 -53 11 -70 3 -16 8 -39 9 -50 18 -98 86 -311 132 -413 13 -29 24
-55 24 -59 0 -3 27 -59 59 -122 100 -197 252 -435 420 -656 120 -156 184 -239
198 -253 15 -15 17 -32 4 -32 -8 0 -60 -23 -279 -126 -40 -19 -75 -34 -77 -34
-3 0 -35 -14 -72 -31 -38 -17 -106 -47 -153 -66 -47 -19 -98 -41 -115 -48 -16
-8 -66 -28 -110 -46 -44 -17 -84 -36 -90 -40 -9 -9 10 -82 41 -154 61 -146
139 -317 149 -326 3 -4 36 8 73 26 70 34 82 39 222 100 47 20 103 45 125 55
22 10 112 48 200 85 88 37 166 72 174 78 12 10 13 2 6 -53 -26 -232 31 -440
179 -651 65 -94 186 -214 279 -277 26 -18 47 -36 48 -40 0 -4 2 -32 4 -62 3
-56 13 -153 19 -180 1 -8 6 -33 11 -55 35 -185 145 -421 273 -590 85 -111 306
-315 341 -315 6 0 11 -4 11 -9 0 -9 211 -118 239 -123 11 -2 15 13 17 67 13
351 103 645 328 1080 71 137 206 380 252 452 l14 23 28 -28 c58 -57 169 -159
207 -189 89 -71 83 -60 90 -158 8 -125 11 -146 41 -264 77 -310 261 -592 520
-799 68 -55 330 -200 340 -189 1 1 5 54 9 117 14 247 81 507 198 775 59 137
211 423 312 590 11 18 51 85 90 149 l70 116 70 1 c106 1 262 7 340 13 39 4
104 8 145 11 89 6 164 12 222 19 24 3 68 8 98 11 113 11 169 18 240 30 14 2
49 7 79 10 29 3 57 7 60 10 4 2 27 6 52 9 24 3 55 8 69 11 14 3 40 8 59 11 18
3 41 7 50 9 57 13 217 46 237 49 13 3 27 7 32 10 5 3 22 7 38 10 26 5 110 27
274 72 30 8 102 31 160 50 58 20 110 37 115 38 6 2 17 6 25 9 8 4 42 16 75 28
33 11 79 29 102 40 24 10 45 19 49 19 39 0 514 239 644 324 19 13 80 53 136
88 55 36 109 72 120 81 10 9 64 50 119 92 55 43 105 82 110 89 6 6 26 24 45
40 19 15 68 59 107 97 40 39 81 72 90 74 10 2 56 13 103 24 47 11 148 31 225
45 156 28 167 30 315 51 58 8 114 17 125 19 11 2 43 7 70 10 28 4 77 11 110
16 33 5 78 11 100 14 22 3 56 8 75 11 45 6 278 44 310 50 14 2 47 9 75 14 27
5 54 7 60 4 7 -4 7 -3 0 4 -5 6 -35 18 -65 28 -30 10 -59 21 -65 25 -5 4 -23
11 -40 15 -36 10 -36 10 -55 18 -8 4 -40 16 -70 26 -184 65 -300 108 -504 186
-127 48 -237 91 -245 95 -9 5 -24 11 -33 14 -26 8 -23 27 26 130 35 76 57 107
113 163 341 338 561 782 637 1288 2 17 7 48 10 70 21 139 22 496 1 615 -2 14
-7 45 -10 70 -11 91 -58 294 -91 398 -90 277 -201 493 -367 715 -171 228 -405
394 -688 487 -51 17 -110 33 -130 36 -43 7 -41 5 -209 214 -120 150 -191 232
-237 273 -23 20 -24 38 -8 117 19 97 25 402 11 570 -4 52 -10 98 -11 101 -2 3
-7 28 -11 55 -3 27 -8 58 -11 69 -2 11 -6 31 -9 45 -73 362 -262 780 -507
1120 -33 47 -63 87 -67 90 -3 3 -37 43 -76 90 -83 98 -219 239 -284 291 -102
83 -284 196 -340 212 -8 3 -17 5 -20 6 -3 1 -27 8 -54 16 -27 8 -72 15 -99 15
l-50 0 6 -59z"/>
</g>
</svg>
